<svg width='24' height='24' viewBox='0 0 24 24' xmlns='http://www.w3.org/2000/svg' xmlns:xlink='http://www.w3.org/1999/xlink'><rect width='24' height='24' stroke='none' fill='#000000' opacity='0'/>


<g transform="matrix(0.42 0 0 0.42 12 12)" >
<g style="" >
<g transform="matrix(1 0 0 1 10 16.5)" >
<polygon style="stroke: none; stroke-width: 1; stroke-dasharray: none; stroke-linecap: butt; stroke-dashoffset: 0; stroke-linejoin: miter; stroke-miterlimit: 4; fill: rgb(49,49,49); fill-rule: nonzero; opacity: 1;" points="3,-6.5 3,2.5 2,0.5 1,5.5 0,3.5 -1,6.5 -3,0.5 " />
</g>
<g transform="matrix(1 0 0 1 -10 16.5)" >
<polygon style="stroke: none; stroke-width: 1; stroke-dasharray: none; stroke-linecap: butt; stroke-dashoffset: 0; stroke-linejoin: miter; stroke-miterlimit: 4; fill: rgb(49,49,49); fill-rule: nonzero; opacity: 1;" points="-3,-6.5 -3,2.5 -2,0.5 -1,5.5 0,3.5 1,6.5 3,0.5 " />
</g>
<g transform="matrix(1 0 0 1 -14.5 7)" >
<path style="stroke: none; stroke-width: 1; stroke-dasharray: none; stroke-linecap: butt; stroke-dashoffset: 0; stroke-linejoin: miter; stroke-miterlimit: 4; fill: rgb(255,188,167); fill-rule: nonzero; opacity: 1;" transform=" translate(-9.5, -31)" d="M 12 25 L 8.988 25 C 7.89 25 7 25.89 7 26.988 L 7 30.186999999999998 C 7 30.727999999999998 7.109 31.262999999999998 7.322 31.759999999999998 C 7.788 32.846 9.13 35.378 9.718 36.477 C 9.893 36.802 10.229 37 10.598 37 L 10.586 37 C 10.851 37 11.106 36.895 11.293000000000001 36.707 L 12 36 L 12 25 z" stroke-linecap="round" />
</g>
<g transform="matrix(1 0 0 1 -14.5 7)" >
<path style="stroke: none; stroke-width: 1; stroke-dasharray: none; stroke-linecap: butt; stroke-dashoffset: 0; stroke-linejoin: miter; stroke-miterlimit: 4; fill: rgb(255,173,147); fill-rule: nonzero; opacity: 1;" transform=" translate(-9.5, -31)" d="M 10.125 34 C 10.125 34 9 34 9 32 C 9 28.5 8 28 8 28 C 8 28 11 27.625 11 32 C 11 34 10.125 34 10.125 34 z" stroke-linecap="round" />
</g>
<g transform="matrix(1 0 0 1 14.5 7)" >
<path style="stroke: none; stroke-width: 1; stroke-dasharray: none; stroke-linecap: butt; stroke-dashoffset: 0; stroke-linejoin: miter; stroke-miterlimit: 4; fill: rgb(255,188,167); fill-rule: nonzero; opacity: 1;" transform=" translate(-38.5, -31)" d="M 36 25 L 39.012 25 C 40.11 25 41 25.89 41 26.988 L 41 30.186999999999998 C 41 30.727999999999998 40.891 31.262999999999998 40.678 31.759999999999998 C 40.211999999999996 32.846 38.87 35.378 38.282 36.477 C 38.107 36.802 37.771 37 37.402 37 L 37.414 37 C 37.149 37 36.894 36.895 36.707 36.707 L 36 36 L 36 25 z" stroke-linecap="round" />
</g>
<g transform="matrix(1 0 0 1 14.5 7)" >
<path style="stroke: none; stroke-width: 1; stroke-dasharray: none; stroke-linecap: butt; stroke-dashoffset: 0; stroke-linejoin: miter; stroke-miterlimit: 4; fill: rgb(255,173,147); fill-rule: nonzero; opacity: 1;" transform=" translate(-38.5, -31)" d="M 37.875 34 C 37.875 34 39 34 39 32 C 39 28.5 40 28 40 28 C 40 28 37 27.625 37 32 C 37 34 37.875 34 37.875 34 z" stroke-linecap="round" />
</g>
<g transform="matrix(1 0 0 1 0 5.5)" >
<path style="stroke: none; stroke-width: 1; stroke-dasharray: none; stroke-linecap: butt; stroke-dashoffset: 0; stroke-linejoin: miter; stroke-miterlimit: 4; fill: rgb(255,219,208); fill-rule: nonzero; opacity: 1;" transform=" translate(-24, -29.5)" d="M 24 11 C 12.177 11 11 20 11 20 C 11 20 11 30 11 33 C 11 35 11.143 36 13 39 C 13.505 39.815 19 48 22 48 C 23.076999999999998 48 24.431 48 26 48 C 29 48 34.627 39.603 35 39 C 36.857 36 37 35 37 33 C 37 30 37 20 37 20 C 37 20 35.823 11 24 11 z" stroke-linecap="round" />
</g>
<g transform="matrix(1 0 0 1 0 14)" >
<path style="stroke: none; stroke-width: 1; stroke-dasharray: none; stroke-linecap: butt; stroke-dashoffset: 0; stroke-linejoin: miter; stroke-miterlimit: 4; fill: rgb(255,188,167); fill-rule: nonzero; opacity: 1;" transform=" translate(-24, -38)" d="M 22 37 L 26 37 C 26 37 25 39 24 39 C 23 39 22 37 22 37 z" stroke-linecap="round" />
</g>
<g transform="matrix(1 0 0 1 0 18)" >
<rect style="stroke: none; stroke-width: 1; stroke-dasharray: none; stroke-linecap: butt; stroke-dashoffset: 0; stroke-linejoin: miter; stroke-miterlimit: 4; fill: rgb(255,188,167); fill-rule: nonzero; opacity: 1;" x="-4" y="-1" rx="0" ry="0" width="8" height="2" />
</g>
<g transform="matrix(1 0 0 1 -5.85 -5.37)" >
<path style="stroke: none; stroke-width: 1; stroke-dasharray: none; stroke-linecap: butt; stroke-dashoffset: 0; stroke-linejoin: miter; stroke-miterlimit: 4; fill: rgb(255,188,167); fill-rule: nonzero; opacity: 1;" transform=" translate(-18.15, -18.63)" d="M 23 24 C 19.22 19.9 14.52 16.17 13.3 15.23 C 13.870000000000001 14.540000000000001 14.59 13.870000000000001 15.48 13.27 C 16.57 14.55 21.24 20.14 23 24 z" stroke-linecap="round" />
</g>
<g transform="matrix(1 0 0 1 -7.5 -2.45)" >
<path style="stroke: none; stroke-width: 1; stroke-dasharray: none; stroke-linecap: butt; stroke-dashoffset: 0; stroke-linejoin: miter; stroke-miterlimit: 4; fill: rgb(255,188,167); fill-rule: nonzero; opacity: 1;" transform=" translate(-16.5, -21.55)" d="M 22 26 C 15.96 21.84 12.27 20.509999999999998 11 20.13 C 11 20.05 11 20 11 20 C 11 20 11.17 18.71 12.02 17.11 C 13.06 17.91 19.59 23.01 22 26 z" stroke-linecap="round" />
</g>
<g transform="matrix(1 0 0 1 -6.5 9)" >
<path style="stroke: none; stroke-width: 1; stroke-dasharray: none; stroke-linecap: butt; stroke-dashoffset: 0; stroke-linejoin: miter; stroke-miterlimit: 4; fill: rgb(255,188,167); fill-rule: nonzero; opacity: 1;" transform=" translate(-17.5, -33)" d="M 13 31 C 13 31 13.5 33 16.5 33 C 19.5 33 22 32 22 32 C 22 32 19.5 35 16.5 35 C 13 35 13 31 13 31 z" stroke-linecap="round" />
</g>
<g transform="matrix(1 0 0 1 -7 12.5)" >
<path style="stroke: none; stroke-width: 1; stroke-dasharray: none; stroke-linecap: butt; stroke-dashoffset: 0; stroke-linejoin: miter; stroke-miterlimit: 4; fill: rgb(255,188,167); fill-rule: nonzero; opacity: 1;" transform=" translate(-17, -36.5)" d="M 22 34 C 22 34 20.25 37 16.5 37 C 12.875 37 12 34 12 34 C 12 34 12.125 39 17 39 C 21 39 22 34 22 34 z" stroke-linecap="round" />
</g>
<g transform="matrix(1 0 0 1 -7.24 17.41)" >
<path style="stroke: none; stroke-width: 1; stroke-dasharray: none; stroke-linecap: butt; stroke-dashoffset: 0; stroke-linejoin: miter; stroke-miterlimit: 4; fill: rgb(255,188,167); fill-rule: nonzero; opacity: 1;" transform=" translate(-16.76, -41.41)" d="M 18.99 40 C 17.34 41.11 16.32 42.13 15.759999999999998 42.83 C 15.309999999999999 42.26 14.899999999999999 41.71 14.529999999999998 41.21 C 16.41 40.2 18.99 40 18.99 40 z" stroke-linecap="round" />
</g>
<g transform="matrix(1 0 0 1 -6.13 20.21)" >
<path style="stroke: none; stroke-width: 1; stroke-dasharray: none; stroke-linecap: butt; stroke-dashoffset: 0; stroke-linejoin: miter; stroke-miterlimit: 4; fill: rgb(255,188,167); fill-rule: nonzero; opacity: 1;" transform=" translate(-17.87, -44.22)" d="M 18.98 43 C 18.98 43 18.35 43.98 18.04 45.43 C 17.599999999999998 44.99 17.169999999999998 44.51 16.759999999999998 44.03 C 17.81 43.15 18.98 43 18.98 43 z" stroke-linecap="round" />
</g>
<g transform="matrix(1 0 0 1 -3.02 21)" >
<path style="stroke: none; stroke-width: 1; stroke-dasharray: none; stroke-linecap: butt; stroke-dashoffset: 0; stroke-linejoin: miter; stroke-miterlimit: 4; fill: rgb(255,188,167); fill-rule: nonzero; opacity: 1;" transform=" translate(-20.98, -45)" d="M 22 42 L 22 48 C 21.4 48 20.7 47.67 19.96 47.14 C 20.4 46.1 21 44.5 21 43 C 21 42.63 21 42 21 42 L 22 42 z" stroke-linecap="round" />
</g>
<g transform="matrix(1 0 0 1 -6 3)" >
<polygon style="stroke: none; stroke-width: 1; stroke-dasharray: none; stroke-linecap: butt; stroke-dashoffset: 0; stroke-linejoin: miter; stroke-miterlimit: 4; fill: rgb(33,33,33); fill-rule: nonzero; opacity: 1;" points="-4,-2 3,3 4,1 -4,-3 " />
</g>
<g transform="matrix(1 0 0 1 -6.5 5.5)" >
<path style="stroke: none; stroke-width: 1; stroke-dasharray: none; stroke-linecap: butt; stroke-dashoffset: 0; stroke-linejoin: miter; stroke-miterlimit: 4; fill: rgb(245,233,232); fill-rule: nonzero; opacity: 1;" transform=" translate(-17.5, -29.5)" d="M 14 28 C 14 28 15 28 18 28 C 20 28 21 30 21 30 L 20 31 L 17.576999999999998 31 C 15 31 14 30 14 29 L 14 28 z" stroke-linecap="round" />
</g>
<g transform="matrix(1 0 0 1 -6.5 5.5)" >
<circle style="stroke: none; stroke-width: 1; stroke-dasharray: none; stroke-linecap: butt; stroke-dashoffset: 0; stroke-linejoin: miter; stroke-miterlimit: 4; fill: rgb(191,54,12); fill-rule: nonzero; opacity: 1;" cx="0" cy="0" r="1.5" />
</g>
<g transform="matrix(1 0 0 1 -6.5 4.5)" >
<path style="stroke: none; stroke-width: 1; stroke-dasharray: none; stroke-linecap: butt; stroke-dashoffset: 0; stroke-linejoin: miter; stroke-miterlimit: 4; fill: rgb(33,33,33); fill-rule: nonzero; opacity: 1;" transform=" translate(-17.5, -28.5)" d="M 21 30 C 21 30 20.125 29 14.875 29 L 14 29 L 14 27 C 14 27 14.895 27 16 27 L 16 27 C 21 27 21 30 21 30 z" stroke-linecap="round" />
</g>
<g transform="matrix(1 0 0 1 6.5 5.5)" >
<path style="stroke: none; stroke-width: 1; stroke-dasharray: none; stroke-linecap: butt; stroke-dashoffset: 0; stroke-linejoin: miter; stroke-miterlimit: 4; fill: rgb(97,97,97); fill-rule: nonzero; opacity: 1;" transform=" translate(-30.5, -29.5)" d="M 34 28 C 34 28 32 28 30 28 C 28 28 27 30 27 30 L 28 31 L 30.423000000000002 31 C 33 31 34 30 34 29 L 34 28 z" stroke-linecap="round" />
</g>
<g transform="matrix(1 0 0 1 6.5 5.75)" >
<path style="stroke: none; stroke-width: 1; stroke-dasharray: none; stroke-linecap: butt; stroke-dashoffset: 0; stroke-linejoin: miter; stroke-miterlimit: 4; fill: rgb(158,158,158); fill-rule: nonzero; opacity: 1;" transform=" translate(-30.5, -29.75)" d="M 33 28.5 C 33 29.881 31.881 31 30.5 31 C 29.119 31 28 29.881 28 28.5 L 33 28.5 z" stroke-linecap="round" />
</g>
<g transform="matrix(1 0 0 1 6.5 4.5)" >
<circle style="stroke: none; stroke-width: 1; stroke-dasharray: none; stroke-linecap: butt; stroke-dashoffset: 0; stroke-linejoin: miter; stroke-miterlimit: 4; fill: rgb(66,66,66); fill-rule: nonzero; opacity: 1;" cx="0" cy="0" r="1.5" />
</g>
<g transform="matrix(1 0 0 1 6.5 4.5)" >
<path style="stroke: none; stroke-width: 1; stroke-dasharray: none; stroke-linecap: butt; stroke-dashoffset: 0; stroke-linejoin: miter; stroke-miterlimit: 4; fill: rgb(33,33,33); fill-rule: nonzero; opacity: 1;" transform=" translate(-30.5, -28.5)" d="M 27 30 C 27 30 27.875 29 33.125 29 L 34 29 L 34 27 C 34 27 33.105 27 32 27 L 32 27 C 27 27 27 30 27 30 z" stroke-linecap="round" />
</g>
<g transform="matrix(1 0 0 1 6 3)" >
<polygon style="stroke: none; stroke-width: 1; stroke-dasharray: none; stroke-linecap: butt; stroke-dashoffset: 0; stroke-linejoin: miter; stroke-miterlimit: 4; fill: rgb(33,33,33); fill-rule: nonzero; opacity: 1;" points="4,-2 -3,3 -4,1 4,-3 " />
</g>
<g transform="matrix(1 0 0 1 0 -7.5)" >
<path style="stroke: none; stroke-width: 1; stroke-dasharray: none; stroke-linecap: butt; stroke-dashoffset: 0; stroke-linejoin: miter; stroke-miterlimit: 4; fill: rgb(66,66,66); fill-rule: nonzero; opacity: 1;" transform=" translate(-24, -16.5)" d="M 44 20 C 44 20 43 17 39 15 L 43 13 C 43 13 41 11 38 10 L 40 5 C 40 5 36 5 34 6 L 33 1 C 33 1 30 2 28 4 L 24 0 L 20 4 C 18 2 15 1 15 1 L 14 6 C 12 5 8 5 8 5 L 10 10 C 7 11 5 13 5 13 L 9 15 C 5 17 4 20 4 20 L 8 20 C 6 23 5 27 5 27 L 9 25 L 10 31 L 11 33 L 11 25 L 12 26 L 13 18 L 14 21.125 L 16 16 L 16 21 L 19 15 L 20 20 L 23 15 C 23 15 25 19 27 21 C 27 21 27 17 28 15 C 29 18 31 21 31 21 L 32 16 L 34 21 L 35 17 L 36 26 L 37 25 L 37 33 L 38 31 L 39 25 L 43 27 C 43 27 42 23 40 20 L 44 20 z" stroke-linecap="round" />
</g>
<g transform="matrix(1 0 0 1 -17 0.5)" >
<path style="stroke: none; stroke-width: 1; stroke-dasharray: none; stroke-linecap: butt; stroke-dashoffset: 0; stroke-linejoin: miter; stroke-miterlimit: 4; fill: rgb(49,49,49); fill-rule: nonzero; opacity: 1;" transform=" translate(-7, -24.5)" d="M 8 24 L 8 22 C 6.75 22.75 5.9879999999999995 24 5.9879999999999995 24 C 5.333 25.684 5 27 5 27 L 9 25 L 9 23 L 8 24 z" stroke-linecap="round" />
</g>
<g transform="matrix(1 0 0 1 17 0.5)" >
<path style="stroke: none; stroke-width: 1; stroke-dasharray: none; stroke-linecap: butt; stroke-dashoffset: 0; stroke-linejoin: miter; stroke-miterlimit: 4; fill: rgb(49,49,49); fill-rule: nonzero; opacity: 1;" transform=" translate(-41, -24.5)" d="M 40 24 L 40 22 C 41.25 22.75 42.012 24 42.012 24 C 42.667 25.684 43 27 43 27 L 39 25 L 39 23 L 40 24 z" stroke-linecap="round" />
</g>
</g>
</g>
</svg>
